<svg width="18" height="18" viewBox="0 0 18 18" fill="none" xmlns="http://www.w3.org/2000/svg">
<rect width="18" height="18" rx="9" fill="#EB5757"/>
<path d="M5.67435 5.18735C5.57215 5.18735 5.46995 5.22557 5.3923 5.30247C5.23642 5.45571 5.23642 5.70415 5.3923 5.85739L12.3524 12.6995C12.5083 12.8528 12.761 12.8528 12.9169 12.6995C13.0728 12.5463 13.0728 12.2978 12.9169 12.1445L5.95688 5.30247C5.87865 5.22605 5.77645 5.18735 5.67435 5.18735Z" fill="white"/>
<path d="M12.6349 5.18735C12.5327 5.18735 12.4306 5.22557 12.3529 5.30247L5.3923 12.1445C5.23642 12.2978 5.23642 12.5463 5.3923 12.6995C5.54818 12.8528 5.80091 12.8528 5.95688 12.6995L12.9169 5.85739C13.0728 5.70415 13.0728 5.45571 12.9169 5.30247C12.8387 5.22605 12.7366 5.18735 12.6349 5.18735Z" fill="white"/>
</svg>
